<mxfile host="app.diagrams.net" modified="2023-06-28T09:40:32.675Z" agent="Mozilla/5.0 (Windows NT 10.0; Win64; x64) AppleWebKit/537.36 (KHTML, like Gecko) Chrome/114.0.0.0 Safari/537.36" etag="0cQjIV6XE4VtXVTCgBui" version="21.5.0" type="github">
  <diagram name="第 1 页" id="98vNd_yMc-9a7zlmiuS-">
    <mxGraphModel dx="570" dy="295" grid="1" gridSize="10" guides="1" tooltips="1" connect="1" arrows="1" fold="1" page="1" pageScale="1" pageWidth="827" pageHeight="1169" math="0" shadow="0">
      <root>
        <mxCell id="0" />
        <mxCell id="1" parent="0" />
        <mxCell id="wvW1MQ88o7CS_0m5E93--1" value="前端" style="rounded=0;whiteSpace=wrap;html=1;fillColor=#dae8fc;strokeColor=#6c8ebf;" vertex="1" parent="1">
          <mxGeometry x="40" y="70" width="120" height="40" as="geometry" />
        </mxCell>
        <mxCell id="wvW1MQ88o7CS_0m5E93--2" value="" style="rounded=0;whiteSpace=wrap;html=1;fillColor=#dae8fc;strokeColor=#6c8ebf;" vertex="1" parent="1">
          <mxGeometry x="175" y="70" width="510" height="40" as="geometry" />
        </mxCell>
        <mxCell id="wvW1MQ88o7CS_0m5E93--3" value="" style="rounded=0;whiteSpace=wrap;html=1;fillColor=#CDEB8B;" vertex="1" parent="1">
          <mxGeometry x="195" y="75" width="240" height="30" as="geometry" />
        </mxCell>
        <mxCell id="wvW1MQ88o7CS_0m5E93--4" value="Web" style="text;html=1;strokeColor=none;fillColor=none;align=center;verticalAlign=middle;whiteSpace=wrap;rounded=0;" vertex="1" parent="1">
          <mxGeometry x="185" y="75" width="60" height="30" as="geometry" />
        </mxCell>
        <mxCell id="wvW1MQ88o7CS_0m5E93--5" value="&lt;font color=&quot;#ffffff&quot;&gt;VUE&lt;/font&gt;" style="rounded=0;whiteSpace=wrap;html=1;fillColor=#19A1E2;" vertex="1" parent="1">
          <mxGeometry x="235" y="80" width="60" height="20" as="geometry" />
        </mxCell>
        <mxCell id="wvW1MQ88o7CS_0m5E93--6" value="&lt;font color=&quot;#ffffff&quot;&gt;ElmentUI&lt;/font&gt;" style="rounded=0;whiteSpace=wrap;html=1;fillColor=#19A1E2;" vertex="1" parent="1">
          <mxGeometry x="305" y="80" width="60" height="20" as="geometry" />
        </mxCell>
        <mxCell id="wvW1MQ88o7CS_0m5E93--7" value="&lt;font color=&quot;#ffffff&quot;&gt;Echarts&lt;/font&gt;" style="rounded=0;whiteSpace=wrap;html=1;fillColor=#19A1E2;" vertex="1" parent="1">
          <mxGeometry x="375" y="80" width="50" height="20" as="geometry" />
        </mxCell>
        <mxCell id="wvW1MQ88o7CS_0m5E93--9" value="" style="rounded=0;whiteSpace=wrap;html=1;fillColor=#CDEB8B;" vertex="1" parent="1">
          <mxGeometry x="442" y="75" width="110" height="30" as="geometry" />
        </mxCell>
        <mxCell id="wvW1MQ88o7CS_0m5E93--10" value="Android" style="text;html=1;strokeColor=none;fillColor=none;align=center;verticalAlign=middle;whiteSpace=wrap;rounded=0;" vertex="1" parent="1">
          <mxGeometry x="434" y="75" width="60" height="30" as="geometry" />
        </mxCell>
        <mxCell id="wvW1MQ88o7CS_0m5E93--11" value="&lt;font color=&quot;#ffffff&quot;&gt;Cordova&lt;/font&gt;" style="rounded=0;whiteSpace=wrap;html=1;fillColor=#19A1E2;" vertex="1" parent="1">
          <mxGeometry x="492" y="80" width="50" height="20" as="geometry" />
        </mxCell>
        <mxCell id="wvW1MQ88o7CS_0m5E93--12" value="" style="rounded=0;whiteSpace=wrap;html=1;fillColor=#CDEB8B;" vertex="1" parent="1">
          <mxGeometry x="562" y="75" width="100" height="30" as="geometry" />
        </mxCell>
        <mxCell id="wvW1MQ88o7CS_0m5E93--13" value="&lt;font color=&quot;#ffffff&quot;&gt;Cordova&lt;/font&gt;" style="rounded=0;whiteSpace=wrap;html=1;fillColor=#19A1E2;" vertex="1" parent="1">
          <mxGeometry x="602" y="80" width="50" height="20" as="geometry" />
        </mxCell>
        <mxCell id="wvW1MQ88o7CS_0m5E93--14" value="IOS" style="text;html=1;strokeColor=none;fillColor=none;align=center;verticalAlign=middle;whiteSpace=wrap;rounded=0;" vertex="1" parent="1">
          <mxGeometry x="552" y="75" width="60" height="30" as="geometry" />
        </mxCell>
        <mxCell id="wvW1MQ88o7CS_0m5E93--15" value="网关" style="rounded=0;whiteSpace=wrap;html=1;fillColor=#ffe6cc;strokeColor=#d79b00;" vertex="1" parent="1">
          <mxGeometry x="40" y="119" width="120" height="40" as="geometry" />
        </mxCell>
        <mxCell id="wvW1MQ88o7CS_0m5E93--16" value="" style="rounded=0;whiteSpace=wrap;html=1;fillColor=#ffe6cc;strokeColor=#d79b00;" vertex="1" parent="1">
          <mxGeometry x="175" y="119" width="510" height="40" as="geometry" />
        </mxCell>
        <mxCell id="wvW1MQ88o7CS_0m5E93--18" value="VPN网关" style="rounded=0;whiteSpace=wrap;html=1;fillColor=#CDEB8B;" vertex="1" parent="1">
          <mxGeometry x="245" y="125" width="110" height="30" as="geometry" />
        </mxCell>
        <mxCell id="wvW1MQ88o7CS_0m5E93--19" value="Nginx" style="rounded=0;whiteSpace=wrap;html=1;fillColor=#CDEB8B;" vertex="1" parent="1">
          <mxGeometry x="365" y="125" width="110" height="30" as="geometry" />
        </mxCell>
        <mxCell id="wvW1MQ88o7CS_0m5E93--20" value="Spring Gateway" style="rounded=0;whiteSpace=wrap;html=1;fillColor=#CDEB8B;" vertex="1" parent="1">
          <mxGeometry x="494" y="125" width="110" height="30" as="geometry" />
        </mxCell>
        <mxCell id="wvW1MQ88o7CS_0m5E93--23" value="接口层" style="rounded=0;whiteSpace=wrap;html=1;fillColor=#f0a30a;strokeColor=#BD7000;fontColor=#000000;" vertex="1" parent="1">
          <mxGeometry x="40" y="170" width="120" height="40" as="geometry" />
        </mxCell>
        <mxCell id="wvW1MQ88o7CS_0m5E93--25" value="" style="rounded=0;whiteSpace=wrap;html=1;fillColor=#f0a30a;strokeColor=#BD7000;fontColor=#000000;" vertex="1" parent="1">
          <mxGeometry x="175" y="170" width="510" height="40" as="geometry" />
        </mxCell>
        <mxCell id="wvW1MQ88o7CS_0m5E93--26" value="RESTful API" style="rounded=0;whiteSpace=wrap;html=1;fillColor=#CDEB8B;" vertex="1" parent="1">
          <mxGeometry x="319" y="175" width="110" height="30" as="geometry" />
        </mxCell>
        <mxCell id="wvW1MQ88o7CS_0m5E93--27" value="Web Socket" style="rounded=0;whiteSpace=wrap;html=1;fillColor=#CDEB8B;" vertex="1" parent="1">
          <mxGeometry x="452" y="175" width="110" height="30" as="geometry" />
        </mxCell>
        <mxCell id="wvW1MQ88o7CS_0m5E93--28" value="服务层" style="rounded=0;whiteSpace=wrap;html=1;fillColor=#d5e8d4;strokeColor=#82b366;" vertex="1" parent="1">
          <mxGeometry x="40" y="220" width="120" height="240" as="geometry" />
        </mxCell>
        <mxCell id="wvW1MQ88o7CS_0m5E93--29" value="" style="rounded=0;whiteSpace=wrap;html=1;fillColor=#d5e8d4;strokeColor=#82b366;" vertex="1" parent="1">
          <mxGeometry x="175" y="220" width="510" height="40" as="geometry" />
        </mxCell>
        <mxCell id="wvW1MQ88o7CS_0m5E93--30" value="统一鉴权" style="text;html=1;strokeColor=none;fillColor=none;align=center;verticalAlign=middle;whiteSpace=wrap;rounded=0;" vertex="1" parent="1">
          <mxGeometry x="200" y="225" width="60" height="30" as="geometry" />
        </mxCell>
        <mxCell id="wvW1MQ88o7CS_0m5E93--31" value="SpringSecurity" style="rounded=0;whiteSpace=wrap;html=1;fillColor=#CDEB8B;" vertex="1" parent="1">
          <mxGeometry x="318" y="225" width="110" height="30" as="geometry" />
        </mxCell>
        <mxCell id="wvW1MQ88o7CS_0m5E93--32" value="JWT" style="rounded=0;whiteSpace=wrap;html=1;fillColor=#CDEB8B;" vertex="1" parent="1">
          <mxGeometry x="452" y="225" width="110" height="30" as="geometry" />
        </mxCell>
        <mxCell id="wvW1MQ88o7CS_0m5E93--33" value="" style="rounded=0;whiteSpace=wrap;html=1;fillColor=#d5e8d4;strokeColor=#82b366;" vertex="1" parent="1">
          <mxGeometry x="290" y="270" width="395" height="130" as="geometry" />
        </mxCell>
        <mxCell id="wvW1MQ88o7CS_0m5E93--34" value="" style="rounded=0;whiteSpace=wrap;html=1;fillColor=#d5e8d4;strokeColor=#82b366;" vertex="1" parent="1">
          <mxGeometry x="175" y="270" width="100" height="130" as="geometry" />
        </mxCell>
        <mxCell id="wvW1MQ88o7CS_0m5E93--35" value="服务保障" style="text;html=1;strokeColor=none;fillColor=none;align=center;verticalAlign=middle;whiteSpace=wrap;rounded=0;" vertex="1" parent="1">
          <mxGeometry x="195" y="280" width="60" height="30" as="geometry" />
        </mxCell>
        <mxCell id="wvW1MQ88o7CS_0m5E93--37" value="grafana&amp;nbsp;" style="rounded=0;whiteSpace=wrap;html=1;fillColor=#CDEB8B;" vertex="1" parent="1">
          <mxGeometry x="185" y="310" width="75" height="20" as="geometry" />
        </mxCell>
        <mxCell id="wvW1MQ88o7CS_0m5E93--38" value="prometheus&amp;nbsp;" style="rounded=0;whiteSpace=wrap;html=1;fillColor=#CDEB8B;" vertex="1" parent="1">
          <mxGeometry x="185" y="350" width="75" height="20" as="geometry" />
        </mxCell>
        <mxCell id="wvW1MQ88o7CS_0m5E93--39" value="工卡服务" style="rounded=0;whiteSpace=wrap;html=1;fillColor=#CDEB8B;" vertex="1" parent="1">
          <mxGeometry x="304" y="280" width="110" height="20" as="geometry" />
        </mxCell>
        <mxCell id="wvW1MQ88o7CS_0m5E93--40" value="手册服务" style="rounded=0;whiteSpace=wrap;html=1;fillColor=#CDEB8B;" vertex="1" parent="1">
          <mxGeometry x="425" y="280" width="105" height="20" as="geometry" />
        </mxCell>
        <mxCell id="wvW1MQ88o7CS_0m5E93--41" value="系统管理服务" style="rounded=0;whiteSpace=wrap;html=1;fillColor=#CDEB8B;" vertex="1" parent="1">
          <mxGeometry x="304" y="310" width="110" height="20" as="geometry" />
        </mxCell>
        <mxCell id="wvW1MQ88o7CS_0m5E93--42" value="搜索服务" style="rounded=0;whiteSpace=wrap;html=1;fillColor=#CDEB8B;" vertex="1" parent="1">
          <mxGeometry x="425" y="310" width="105" height="20" as="geometry" />
        </mxCell>
      </root>
    </mxGraphModel>
  </diagram>
</mxfile>
